<?xml version="1.0" standalone="no"?>
<!DOCTYPE svg PUBLIC "-//W3C//DTD SVG 20010904//EN"
 "http://www.w3.org/TR/2001/REC-SVG-20010904/DTD/svg10.dtd">
<svg version="1.0" xmlns="http://www.w3.org/2000/svg"
 width="570.000000pt" height="570.000000pt" viewBox="0 0 570.000000 570.000000"
 preserveAspectRatio="xMidYMid meet">

<g transform="translate(0.000000,570.000000) scale(0.100000,-0.100000)"
fill="#000000" stroke="none">
<path d="M2372 4763 l918 -918 222 0 c247 0 356 -15 541 -76 139 -45 358 -158
467 -239 293 -220 495 -499 605 -835 65 -199 80 -296 80 -525 0 -229 -15 -326
-80 -525 -88 -270 -220 -480 -427 -681 -240 -233 -505 -372 -848 -445 -144
-31 -463 -34 -615 -5 -274 51 -542 173 -760 346 -75 60 -227 216 -287 295
-149 196 -259 444 -311 699 -19 95 -22 142 -22 334 l0 222 -918 918 c-505 504
-914 908 -910 896 4 -12 402 -967 883 -2122 l875 -2102 1958 0 1957 0 0 1958
0 1957 -2102 875 c-1155 481 -2110 879 -2122 883 -12 4 392 -405 896 -910z"/>
<path d="M3411 3419 c-289 -26 -555 -152 -767 -363 -214 -215 -335 -472 -363
-774 -60 -644 385 -1227 1029 -1347 111 -21 329 -21 440 0 457 85 831 412 973
850 41 127 58 237 58 385 0 261 -65 479 -206 690 -218 328 -551 525 -942 559
-65 6 -120 10 -123 10 -3 -1 -47 -6 -99 -10z"/>
</g>
</svg>
