<?xml version="1.0" standalone="no"?>
<!DOCTYPE svg PUBLIC "-//W3C//DTD SVG 20010904//EN"
 "http://www.w3.org/TR/2001/REC-SVG-20010904/DTD/svg10.dtd">
<svg version="1.0" xmlns="http://www.w3.org/2000/svg"
 width="484.000000pt" height="480.000000pt" viewBox="0 0 484.000000 480.000000"
 preserveAspectRatio="xMidYMid meet">

<g transform="translate(0.000000,480.000000) scale(0.100000,-0.100000)"
fill="#000000" stroke="none">
<path d="M1800 4455 l0 -345 140 0 c105 0 140 3 140 13 1 6 1 161 1 342 l0
330 -141 3 -140 3 0 -346z"/>
<path d="M2260 4455 l0 -346 143 3 142 3 3 343 2 342 -145 0 -145 0 0 -345z"/>
<path d="M1805 4008 c-3 -7 -4 -884 -3 -1948 l3 -1935 370 0 370 0 0 1945 0
1945 -368 3 c-289 2 -369 0 -372 -10z"/>
<path d="M2725 3978 c-3 -7 -4 -213 -3 -458 l3 -445 510 -6 c553 -6 541 -5
635 -64 119 -75 120 -235 2 -308 -98 -62 -92 -61 -642 -67 l-505 -5 0 -425 0
-425 550 -3 c478 -2 561 -1 634 14 232 45 415 141 589 308 128 123 209 249
270 419 89 247 89 487 -1 737 -133 372 -468 651 -868 724 -114 21 -1167 24
-1174 4z"/>
<path d="M1555 3964 c-329 -73 -593 -196 -836 -392 -88 -71 -245 -232 -313
-320 -134 -175 -263 -428 -316 -617 -42 -147 -53 -198 -70 -318 -74 -508 74
-1059 392 -1467 133 -170 335 -352 509 -458 216 -132 513 -240 674 -245 l50
-2 0 520 0 520 -40 3 c-359 25 -648 380 -648 797 0 237 97 465 263 618 98 91
189 136 340 167 l85 17 0 589 0 589 -35 2 c-19 0 -44 -1 -55 -3z"/>
<path d="M2845 1578 c-3 -7 -4 -364 -3 -793 l3 -780 110 0 110 0 0 790 0 790
-108 3 c-80 2 -109 -1 -112 -10z"/>
<path d="M3218 1580 c-1 -5 -2 -215 0 -465 l2 -455 104 0 c75 0 107 4 115 14
8 9 10 139 9 462 l-3 449 -112 3 c-70 2 -112 -1 -115 -8z"/>
<path d="M3595 1577 c-3 -7 -4 -85 -3 -172 l3 -160 110 0 110 0 0 170 0 170
-108 3 c-82 2 -109 0 -112 -11z"/>
</g>
</svg>
